<svg version="1.1" id="Layer_1" xmlns="http://www.w3.org/2000/svg" x="0" y="0" viewBox="0 0 256 256" style="enable-background:new 0 0 256 256" xml:space="preserve"><style>.st0{fill:#3a312a}.st2{fill:#87796f}.st6{fill:#d5de58}.st27{fill:#f8e4c8}.st28{fill:#89c4db}.st29{fill:#ed6e7a}.st30{fill:#d24e5c}</style><path class="st27" d="M28.29 60.67h199.42v167.04H28.29z"/><path class="st0" d="M227.71 59.17H28.29a1.5 1.5 0 0 0-1.5 1.5v63.16a1.5 1.5 0 1 0 3 0V62.17h196.42v164.04H29.79v-88.707a1.5 1.5 0 1 0-3 0v90.207a1.5 1.5 0 0 0 1.5 1.5h199.42a1.5 1.5 0 0 0 1.5-1.5V60.67a1.5 1.5 0 0 0-1.5-1.5z"/><path class="st28" d="M89.412 117.87H50.768a7.728 7.728 0 0 0-7.728 7.728V227.71h54.1V125.598a7.728 7.728 0 0 0-7.728-7.728z"/><path class="st0" d="M89.412 116.37H50.769c-5.089 0-9.229 4.14-9.229 9.228V227.71a1.5 1.5 0 0 0 1.5 1.5h54.1a1.5 1.5 0 0 0 1.5-1.5V125.598c0-5.088-4.14-9.228-9.228-9.228zm6.228 109.84h-51.1V125.598a6.235 6.235 0 0 1 6.229-6.228h38.644a6.235 6.235 0 0 1 6.228 6.228V226.21z"/><path class="st28" d="M203.858 117.865h-82.785a7.728 7.728 0 0 0-7.728 7.728v82.785a7.728 7.728 0 0 0 7.728 7.728h82.785a7.728 7.728 0 0 0 7.728-7.728v-82.785a7.728 7.728 0 0 0-7.728-7.728z"/><path class="st0" d="M203.857 116.365h-82.784c-5.089 0-9.229 4.14-9.229 9.228v82.785c0 5.089 4.14 9.228 9.229 9.228h82.784c5.089 0 9.229-4.14 9.229-9.228v-82.785c0-5.088-4.14-9.228-9.229-9.228zm6.229 92.013a6.235 6.235 0 0 1-6.229 6.228h-82.784a6.235 6.235 0 0 1-6.229-6.228v-82.785a6.235 6.235 0 0 1 6.229-6.228h82.784a6.235 6.235 0 0 1 6.229 6.228v82.785z"/><path class="st2" d="M233.575 227.71H22.425a5.865 5.865 0 0 0 0 11.73h211.15a5.865 5.865 0 0 0 0-11.73z"/><path class="st0" d="M233.575 226.21H22.425c-4.062 0-7.365 3.304-7.365 7.366 0 4.061 3.304 7.365 7.365 7.365h211.15c4.062 0 7.365-3.304 7.365-7.366 0-4.061-3.303-7.365-7.365-7.365zm0 11.73H22.425a4.37 4.37 0 0 1-4.365-4.366 4.37 4.37 0 0 1 4.365-4.365h211.15a4.37 4.37 0 0 1 4.365 4.366 4.37 4.37 0 0 1-4.365 4.365z"/><path class="st29" d="M204.249 16.56H51.751L16.56 60.667h222.88z"/><path class="st0" d="m240.613 59.731-35.191-44.107a1.5 1.5 0 0 0-1.173-.564h-29.97a1.5 1.5 0 1 0 0 3h29.248l32.797 41.106H19.676L52.473 18.06h108.581a1.5 1.5 0 1 0 0-3H51.751c-.456 0-.888.208-1.173.564L15.387 59.731a1.5 1.5 0 0 0 1.173 2.435h222.88a1.501 1.501 0 0 0 1.173-2.435z"/><path class="st6" d="M61.125 60.667v24.279c.003-.144.011-.287.011-.431 0 12.309 9.979 22.287 22.288 22.287 11.984 0 21.756-9.46 22.263-21.32V60.667H61.125z"/><path class="st0" d="M105.688 59.167H61.125a1.5 1.5 0 0 0-1.5 1.5v24.279c0 .085.007.167.021.248.36 12.804 10.889 23.108 23.778 23.108 12.778 0 23.216-9.996 23.764-22.82V60.667a1.5 1.5 0 0 0-1.5-1.5zm-22.264 46.134c-11.462 0-20.787-9.325-20.788-20.787 0-.061-.004-.121-.011-.181V62.167h41.563l.001 23.251a20.733 20.733 0 0 1-20.765 19.883z"/><path class="st29" d="M16.56 60.667v23.847c0 12.309 9.979 22.288 22.288 22.288 12.164 0 22.046-9.747 22.277-21.856V60.667H16.56z"/><path class="st0" d="M61.125 59.167H16.56a1.5 1.5 0 0 0-1.5 1.5v23.847c0 13.117 10.671 23.788 23.788 23.788 12.865 0 23.531-10.464 23.777-23.356V60.667a1.5 1.5 0 0 0-1.5-1.5zm-1.5 25.75c-.215 11.24-9.535 20.384-20.777 20.384-11.463 0-20.788-9.326-20.788-20.788V62.167h41.565v22.75z"/><path class="st29" d="M194.813 60.667v25.292c.031-.478.052-.958.052-1.444.001 12.309 9.979 22.287 22.288 22.287 12.309 0 22.288-9.979 22.288-22.288V60.667h-44.628z"/><path class="st0" d="M239.44 59.167h-44.628a1.5 1.5 0 0 0-1.5 1.5v25.292c0 .228.051.444.142.638 1.059 12.145 11.283 21.706 23.698 21.706 13.117 0 23.788-10.671 23.788-23.788V60.667a1.5 1.5 0 0 0-1.5-1.5zm-1.5 25.346c0 11.462-9.325 20.788-20.788 20.788s-20.788-9.325-20.788-20.787a1.49 1.49 0 0 0-.052-.392V62.167h41.628v22.346z"/><path class="st6" d="M150.25 60.667v25.112c.023-.419.038-.841.038-1.266 0 12.309 9.979 22.288 22.288 22.288 11.823 0 21.491-9.208 22.237-20.843V60.667H150.25z"/><path class="st0" d="M194.813 59.167H150.25a1.5 1.5 0 0 0-1.5 1.5v25.112c0 .197.038.385.107.558.934 12.269 11.215 21.964 23.719 21.964 12.51 0 22.935-9.773 23.736-22.343V60.667a1.498 1.498 0 0 0-1.499-1.5zm-22.237 46.134c-11.463 0-20.788-9.326-20.788-20.788 0-.116-.013-.229-.038-.337V62.167h41.563l.003 23.696c-.699 10.9-9.808 19.438-20.74 19.438z"/><path class="st29" d="M105.688 60.667v24.815c.014-.321.024-.644.024-.968 0 12.309 9.979 22.288 22.288 22.288 11.884 0 21.594-9.302 22.25-21.023V60.667h-44.562z"/><path class="st0" d="M150.25 59.167h-44.563a1.5 1.5 0 0 0-1.5 1.5v24.815c0 .153.022.301.065.44.73 12.464 11.103 22.38 23.747 22.38 12.612 0 23.043-9.857 23.75-22.523V60.667a1.498 1.498 0 0 0-1.499-1.5zM128 105.301c-11.463 0-20.788-9.326-20.788-20.788 0-.092-.009-.183-.024-.271V62.167h41.563l.002 23.528c-.616 10.994-9.732 19.606-20.753 19.606z"/><path d="M217.15 108.3c-3.55 0-6.91-.78-9.94-2.18V117c3.44 1.34 5.88 4.68 5.88 8.59v82.79c0 3.91-2.44 7.26-5.88 8.6v9.23h19v-119.7a23.724 23.724 0 0 1-9.06 1.79z" style="fill:#ddc9ac"/><path d="M233.58 229.21h-19c2.4 0 4.36 1.96 4.36 4.37 0 2.4-1.96 4.36-4.36 4.36h19c2.4 0 4.36-1.96 4.36-4.36 0-2.41-1.96-4.37-4.36-4.37z" style="fill:#6a5c52"/><path class="st30" d="M203.53 18.06h-19l32.79 41.11h19zM218.94 62.17v22.34c0 8.05-4.59 15.04-11.29 18.49 2.85 1.47 6.08 2.3 9.5 2.3 11.47 0 20.79-9.32 20.79-20.79V62.17h-19z"/><path class="st29" d="m196.058 155.174-21.851-21.851a3.218 3.218 0 0 0-4.548 0l-33.164 33.164a3.218 3.218 0 0 0 0 4.548l21.851 21.851a3.215 3.215 0 0 0 4.547 0l33.164-33.164a3.215 3.215 0 0 0 .001-4.548z"/><path class="st0" d="m197.119 154.114-21.851-21.852a4.724 4.724 0 0 0-6.669 0l-33.164 33.164a4.683 4.683 0 0 0-1.381 3.335c0 1.26.49 2.444 1.381 3.334l21.851 21.851a4.702 4.702 0 0 0 3.335 1.379 4.698 4.698 0 0 0 3.334-1.379l33.165-33.165a4.72 4.72 0 0 0-.001-6.667zm-2.121 4.547-33.164 33.164c-.648.647-1.778.648-2.427 0l-21.851-21.851a1.702 1.702 0 0 1-.502-1.212c0-.458.178-.889.502-1.213l33.164-33.164a1.71 1.71 0 0 1 1.214-.502c.438 0 .878.167 1.213.501l21.851 21.851a1.719 1.719 0 0 1 0 2.426z"/><path transform="rotate(-45.001 160.323 157.154)" class="st2" d="M133.658 153.649h53.333v7.006h-53.333z"/><path class="st0" d="m182.718 139.713-4.954-4.954a1.5 1.5 0 0 0-2.121 0l-37.712 37.711a1.5 1.5 0 0 0 0 2.121l4.954 4.955a1.502 1.502 0 0 0 2.122 0l37.712-37.712a1.5 1.5 0 0 0-.001-2.121zm-38.773 36.651-2.833-2.833 35.591-35.59 2.833 2.833-35.591 35.59z"/><path class="st27" d="M178.082 164.501h-46.901a3.216 3.216 0 0 0-3.216 3.216v30.901a3.216 3.216 0 0 0 3.216 3.216h46.901a3.216 3.216 0 0 0 3.216-3.216v-30.901a3.216 3.216 0 0 0-3.216-3.216z"/><path class="st0" d="M178.082 163h-46.901a4.721 4.721 0 0 0-4.715 4.716v30.901c0 2.6 2.115 4.716 4.715 4.716h46.901a4.721 4.721 0 0 0 4.716-4.716v-30.901c0-2.6-2.115-4.716-4.716-4.716zm1.716 35.618c0 .946-.77 1.716-1.716 1.716h-46.901a1.717 1.717 0 0 1-1.715-1.716v-30.901c0-.946.77-1.716 1.715-1.716h46.901c.946 0 1.716.77 1.716 1.716v30.901z"/><circle class="st29" cx="172.2" cy="174.461" r="4.784"/><path class="st0" d="M172.2 168.177a6.291 6.291 0 0 0-6.284 6.285c0 3.465 2.819 6.284 6.284 6.284s6.284-2.819 6.284-6.284a6.291 6.291 0 0 0-6.284-6.285zm0 9.569a3.287 3.287 0 0 1-3.284-3.284c0-1.811 1.474-3.285 3.284-3.285s3.284 1.474 3.284 3.285a3.287 3.287 0 0 1-3.284 3.284z"/><circle class="st6" cx="165.847" cy="174.461" r="4.784"/><path class="st0" d="M165.847 168.177a6.291 6.291 0 0 0-6.284 6.285 6.291 6.291 0 0 0 6.284 6.284 6.291 6.291 0 0 0 6.285-6.284 6.292 6.292 0 0 0-6.285-6.285zm0 9.569a3.287 3.287 0 0 1-3.284-3.284 3.289 3.289 0 0 1 3.284-3.285 3.289 3.289 0 0 1 3.285 3.285 3.288 3.288 0 0 1-3.285 3.284zM148.619 177.932h-14.432a1.5 1.5 0 1 0 0 3h14.432a1.5 1.5 0 1 0 0-3zM175.337 194.088h-41.149a1.5 1.5 0 1 0 0 3h41.149a1.5 1.5 0 1 0 0-3zM148.619 171.448h-14.432a1.5 1.5 0 1 0 0 3h14.432a1.5 1.5 0 1 0 0-3z"/></svg>